
<svg height="320" width="320" xmlns="http://www.w3.org/2000/svg"><path d="M279 154c1-3-1-6-4-7 8 3 7 10 7 10l-9 48h-4zm-15 15-2 8-6 6 2-9zm-17 98a7 7 0 0 0 12-3l9-45h6a7 7 0 0 0 3-13c1 0 7 2 7 8 0 4-2 7-7 7h-7l-8 45c0 3-3 5-6 5s-6-1-9-4zm-10-67-6 5h-5l8-7 3 2zm-35 17 5 2h47l-1 2h-43s-5 0-8-5zm0 0" fill="#fdd425"/><path d="M142 90c9-5 18-5 26 0l42 24c8 4 13 13 13 22v48c0 9-5 18-13 22l-42 24c-8 5-18 5-26 0l-41-24c-8-4-13-13-13-22v-48c0-9 5-18 13-22zm0 0" fill="#ef4723"/><path d="m150 205-14 22-33-19 20-22 2-3 5 3c8 6 18 0 34-1 15-1 19 1 19 1l9 31-24 13c-2 2-5 3-8 3l-6-28zm0 0" fill="#63d196"/><path d="M108 115v1c0 3-4 6-7 6h-6l-8 44a7 7 0 0 1-12 4c-2-2-3-4-2-6l7-39 1-3H35c-3 0-5-1-6-3h-1c-1-3-1-6 2-9l64-59c2-2 6-2 8-1 3 1 5 4 4 8l-9 50h4l3 1c3 1 4 4 4 6zM90 79l1-7-38 36h30zm0 0" fill="#ff8166"/><path d="M111 117c0 3-2 7-7 7h-6l-8 45c-1 3-4 6-7 6s-6-2-8-5a7 7 0 0 0 12-4l8-44h6a7 7 0 0 0 3-13c1 0 7 2 7 8zM91 72l-1 7-31 29h-6zm18-12-9 48h-3l9-50c1-4-1-7-4-8 9 3 7 10 7 10zm0 0" fill="#fdd425"/><path d="M75 170h-1" fill="none" stroke="#000" stroke-linecap="round" stroke-linejoin="round" stroke-width=".52932"/><path d="m81 122-1 3H38s-6-1-9-6v1l6 2zm0 0" fill="#fdd425"/><path d="M253 269c-3 0-4 0-6-2l-2-6 8-40 1-2h-47c-2 0-4-1-5-3-2-2-2-7 1-9l18-17 13 8-8 7h30l6-28 2-8-6 5 12-28 5 1c3 1 5 4 4 8l-10 50h5l3 1a7 7 0 0 1-3 13h-6l-9 45c0 3-3 5-6 5zm0 0" fill="#ff8166"/><path d="m221 190-18 17c-2 1-3 3-3 5l10-6c6-3 10-9 12-16zm0 0" fill="#ff00f5"/><path d="M296 186c17-9 37-9 54 0l86 50c17 10 27 28 27 47v99c0 20-10 37-27 47l-86 50a54 54 0 0 1-54 0l-86-50a54 54 0 0 1-27-47v-99c0-19 10-37 27-47zm0 0" style="fill:none;stroke-width:1.1;stroke-linecap:round;stroke-linejoin:round;stroke:#000;stroke-miterlimit:10" transform="scale(.4812)"/><path d="M98 124h6c5 0 7-4 7-7s-2-5-4-7l-1 1c2 1 2 3 2 5 0 3-3 6-7 6h-6l-7 37v13l2-3zm0 0" fill="#63d196"/><path d="M121 183h4l-2 3zm0 0"/><path d="M101 122a7 7 0 0 0 5-11l-5 3c-8 4-13 13-13 22v23l7-37zm0 0" fill="#ff00f5"/><path d="m234 198 24-24-2 9-19 17-3-2zm0 0" fill="#63d196"/><path d="m270 146-1 3-11 25-24 24-13-8 46-42zm0 0" fill="#ef4723"/><path d="m213 184-6 7 1-10zm-15-2-16-13-1-8zm-80-17-3 14-10-10zm16-4-1 3-18 15zm0 0"/><path d="m118 165 1-6-14-18 15-4 19-6 14 2-4 8c-1 3 0 5 6 4 6 0 12-10 12-10l32 8 20 13-10 14-1 11-1 10-9-8-17-22 1 8 1 17s-4-2-19-1c-16 1-26 7-34 1l-4-3h-5l12-19 1-3-19 18zm0 0" fill="#fdd425"/><path d="m81 122-1 3H38s-6-1-9-6v1l6 2zm28-62-9 48h-3l9-50c1-4-1-7-4-8 9 3 7 10 7 10zM91 72l-1 7-31 29h-6zm0 0" fill="none" stroke="#000" stroke-linecap="round" stroke-linejoin="round" stroke-width=".52932"/><path d="m104 109-3-1h-4l9-50c1-4-1-7-4-8-2-1-6-1-8 1l-64 59a7 7 0 0 0 5 12h46l-8 42c-1 2 0 4 2 6a7 7 0 0 0 12-4l8-44h6a7 7 0 0 0 3-13zm0 0" fill="none" stroke="#000" stroke-linecap="round" stroke-linejoin="round" stroke-width=".52932"/><path d="m90 79-7 29H53l38-36zm-3 87c-1 4-4 6-7 6s-4 0-5-2c2 3 5 5 8 5 2 0 4-1 5-3v-13zm17-57 2 2 1-1zm0 0" fill="none" stroke="#000" stroke-linecap="round" stroke-linejoin="round" stroke-width=".52932"/><path d="M210 254a15 15 0 0 0 11-24l-11 6a54 54 0 0 0-27 47v47l14-76zm0 0" style="fill:none;stroke-width:1.1;stroke-linecap:round;stroke-linejoin:round;stroke:#000;stroke-miterlimit:10" transform="scale(.4812)"/><path d="M210 254a15 15 0 0 0 11-24l-11 6a54 54 0 0 0-27 47v47l14-76zm0 0" style="fill:none;stroke-width:1.1;stroke-linecap:round;stroke-linejoin:round;stroke:#000;stroke-miterlimit:10" transform="scale(.4812)"/><path d="M98 124h6c5 0 7-4 7-7s-2-5-4-7l-1 1c2 1 2 3 2 5 0 3-3 6-7 6h-6l-7 37v13l2-3zm0 0" fill="none" stroke="#000" stroke-linecap="round" stroke-linejoin="round" stroke-width=".52932"/><path d="M168 116c1 0 3 1 2 6-2 4-6 5-6 5v-3l2-1c0-2-1-3-2-3l-1 1s-1 0-1-2v-4l-5 2v-2c-1-1-3 0-4 4v1s-2 0-2-3c0-2 2-3 3-4l-3-2c0-1 1-3 3-3l9 4c4 3 3 4 3 4h2zm0 0"/><path d="M153 128h-2l2-8v-1c1-4 3-5 4-4v2l5-2v3l1 3 1-1c1 0 2 1 2 3l-2 1v3l1 7 2 1s-6 10-12 10c-6 1-7-1-6-4l4-8zm6-8v-1 2zm-3-1v-1l-1 1v1zm81 81 19-17-4 10c-2 6-9 9-15 7zm43-88c7 1 6 5 6 5 5 1 7 4 7 5l-2 4 2 1c1 2 0 4-6 6-5 2-13 7-17 13l-3 2-46 42-8-6-5-3 1-11 10-14 14 9 9-29c2-8 4-10 1-14-2-4-2-6 2-7 3 0 10 1 10 10 8-8 17-14 25-13zm-175 29-18 8-3-23c-1-8-4-11-9-13l-3-1s-4-1-5-6c-1-4 0-6-3-7s-6 5-2 9c-6-4-9-9-11-10-4-3-7-1-6 1-3 0-6 2-3 5l2 2c-5 1-3 4 0 7s2 6 9 11c4 3 6 6 6 14l4 34c1 7 7 10 13 8l29-11 13-4 1-6zm0 0" fill="#eedcc6"/><g fill="none" stroke="#000" stroke-linecap="round" stroke-linejoin="round" stroke-width="1.1"><path d="M163 124h1l2-1c0-2-1-3-2-3l-1 1s-1 0-1-2v-4l-5 2v-2c-1-1-3 0-4 4v1l-2 8h9" stroke-miterlimit="10" stroke-width=".52932"/><path d="M164 124v3l1 7v2" stroke-miterlimit="10" stroke-width=".52932"/><path d="M153 128v5l-4 8c-1 3 0 5 6 4 6 0 12-10 12-10M62 109v-1c-6-4-9-9-11-10-4-4-7-1-6 1v1l4 5c2 4 6 9 14 14m9-7-5-1-5-2m13 4-3-1m16 43-1-6-3-23c-1-8-4-11-9-13" stroke-miterlimit="10" stroke-width=".52932"/><path d="m118 165-13 4-29 11c-6 2-12-1-13-8l-4-34c0-8-2-11-6-14-7-5-6-8-9-11s-5-6 0-7" stroke-miterlimit="10" stroke-width=".52932"/><path d="M87 149c17-7 34-13 52-18l14 2" stroke-miterlimit="10" stroke-width=".52932"/><path d="m105 169 10 10 19-18-1 3-18 15 3-14 1-6-14-18m60-7 2 1 32 8 20 13 14 9m-41 52-9-31-1-17-1-8 17 21m-77 1h5l4 3c8 6 18 0 34-1 15-1 19 1 19 1" stroke-miterlimit="10" stroke-width=".52932"/><path d="m103 208 20-22 3-3m10 44 14-22m-2 0h6m6 28-6-28m-33-22 2 3m10-22-12 19m61-14 16 13 9 9 6-7m-5-3 5 3 8 6 13 8h0l3 2c6 2 13-1 15-7l4-10 2-9 12-28c4-6 12-11 17-13 6-2 7-4 6-6l-2-1c-2-1-7 0-12 1-6 2-11 7-11 7" stroke-miterlimit="10" stroke-width=".52932"/><path d="m277 206-3-1h-5l10-51c1-3-1-6-4-7-3-2-6-1-8 1l-46 42-18 17c-3 2-3 7-1 9v1l5 2h47l-1 2-8 40 2 6m17-98-2 8" stroke-width=".52932"/><path d="m262 177-6 28h-30m27 16 1-2h-47c-2 0-4-1-5-3 3 5 8 5 8 5zm24-15a7 7 0 0 1-3 13h-6l-9 45c0 3-3 5-6 5s-4 0-6-2c3 3 6 4 9 4s6-2 6-5l8-45h7c5 0 7-3 7-7 0-6-6-8-7-8zm-8-1h4l9-48s1-7-7-10c3 1 5 4 4 7zm0 0" stroke-width=".52932"/><path d="m262 177 2-8-6 5-24 24-8 7h5l6-5 19-17zm0 0" stroke-width=".52932"/><path d="m219 156-10 14-1 11-1 10m-43-64s4-1 6-5c1-5-2-6-2-6h-2c0-1 1-2-3-4-5-3-6-4-9-4-2 0-3 2-3 3l3 2c-1 1-3 2-3 4s2 3 2 3" stroke-miterlimit="10" stroke-width=".52932"/><path d="m156 120-2 4h2m0 2s2-2 5-1m-5-6-1 1v-1l1-1zm3 1v1-2zm106 6s8-7 17-8l4-1c5 1 7 4 7 5l-2 4m-59 42 1-3 9-29c2-8 4-10 1-14-2-4-2-6 2-7 3 0 10 1 10 10l-1 5c9 2 8 11 8 11" stroke-miterlimit="10" stroke-width=".52932"/><path d="M286 117s1-4-6-5c-8-1-17 5-25 13m-196-3s-7-1-11-8l-4-8-2-2c-3-3 0-5 3-5m27 13s-4-1-5-6c-1-4 0-6-3-7-3-2-6 5-2 9" stroke-miterlimit="10" stroke-width=".52932"/></g></svg>
